<mxfile version="13.5.8" type="github" host="app.diagrams.net" modified="2020-08-08T11:24:21.399Z" agent="5.0 (Windows NT 10.0; Win64; x64) AppleWebKit/537.36 (KHTML, like Gecko) Chrome/70.0.3538.102 Safari/537.36 Edge/18.18363" etag="rDsmfH_FsswT3W2MVb2Z">
  <diagram id="C5RBs43oDa-KdzZeNtuy" name="Page-1">
    <mxGraphModel grid="1" shadow="0" math="0" pageHeight="1169" pageWidth="827" pageScale="1" page="1" fold="1" arrows="1" connect="1" tooltips="1" guides="1" gridSize="10" dy="506" dx="782">
      <root>
        <mxCell id="WIyWlLk6GJQsqaUBKTNV-0" />
        <mxCell id="WIyWlLk6GJQsqaUBKTNV-1" parent="WIyWlLk6GJQsqaUBKTNV-0" />
        <mxCell id="WIyWlLk6GJQsqaUBKTNV-2" value="" parent="WIyWlLk6GJQsqaUBKTNV-1" edge="1" target="WIyWlLk6GJQsqaUBKTNV-6" source="WIyWlLk6GJQsqaUBKTNV-3" style="rounded=0;html=1;jettySize=auto;orthogonalLoop=1;fontSize=11;endArrow=block;endFill=0;endSize=8;strokeWidth=1;shadow=0;labelBackgroundColor=none;edgeStyle=orthogonalEdgeStyle;">
          <mxGeometry as="geometry" relative="1" />
        </mxCell>
        <mxCell id="WIyWlLk6GJQsqaUBKTNV-3" value="量子算法" parent="WIyWlLk6GJQsqaUBKTNV-1" style="rounded=1;whiteSpace=wrap;html=1;fontSize=12;glass=0;strokeWidth=1;shadow=0;" vertex="1">
          <mxGeometry as="geometry" height="40" width="120" y="80" x="160" />
        </mxCell>
        <mxCell id="JpG2KGv7KNXfuL8RFDFC-4" value="" parent="WIyWlLk6GJQsqaUBKTNV-1" edge="1" target="WIyWlLk6GJQsqaUBKTNV-7" source="WIyWlLk6GJQsqaUBKTNV-6" style="edgeStyle=orthogonalEdgeStyle;rounded=0;orthogonalLoop=1;jettySize=auto;html=1;">
          <mxGeometry as="geometry" relative="1" />
        </mxCell>
        <mxCell id="WIyWlLk6GJQsqaUBKTNV-6" value="高级编译和优化" parent="WIyWlLk6GJQsqaUBKTNV-1" style="rhombus;whiteSpace=wrap;html=1;shadow=0;fontFamily=Helvetica;fontSize=12;align=center;strokeWidth=1;spacing=6;spacingTop=-4;" vertex="1">
          <mxGeometry as="geometry" height="80" width="100" y="170" x="170" />
        </mxCell>
        <mxCell id="JpG2KGv7KNXfuL8RFDFC-8" value="" parent="WIyWlLk6GJQsqaUBKTNV-1" edge="1" target="JpG2KGv7KNXfuL8RFDFC-7" source="WIyWlLk6GJQsqaUBKTNV-7" style="edgeStyle=orthogonalEdgeStyle;rounded=0;orthogonalLoop=1;jettySize=auto;html=1;">
          <mxGeometry as="geometry" relative="1" />
        </mxCell>
        <mxCell id="WIyWlLk6GJQsqaUBKTNV-7" value="量子和经典程序" parent="WIyWlLk6GJQsqaUBKTNV-1" style="rounded=1;whiteSpace=wrap;html=1;fontSize=12;glass=0;strokeWidth=1;shadow=0;" vertex="1">
          <mxGeometry as="geometry" height="40" width="120" y="190" x="320" />
        </mxCell>
        <mxCell id="JpG2KGv7KNXfuL8RFDFC-1" parent="WIyWlLk6GJQsqaUBKTNV-1" edge="1" target="JpG2KGv7KNXfuL8RFDFC-0" source="WIyWlLk6GJQsqaUBKTNV-11" style="edgeStyle=orthogonalEdgeStyle;rounded=0;orthogonalLoop=1;jettySize=auto;html=1;exitX=0.75;exitY=0;exitDx=0;exitDy=0;entryX=0.75;entryY=1;entryDx=0;entryDy=0;">
          <mxGeometry as="geometry" relative="1" />
        </mxCell>
        <mxCell id="WIyWlLk6GJQsqaUBKTNV-11" value="算法输出" parent="WIyWlLk6GJQsqaUBKTNV-1" style="rounded=1;whiteSpace=wrap;html=1;fontSize=12;glass=0;strokeWidth=1;shadow=0;" vertex="1">
          <mxGeometry as="geometry" height="40" width="120" y="430" x="160" />
        </mxCell>
        <mxCell id="JpG2KGv7KNXfuL8RFDFC-6" parent="WIyWlLk6GJQsqaUBKTNV-1" edge="1" target="WIyWlLk6GJQsqaUBKTNV-11" source="WIyWlLk6GJQsqaUBKTNV-12" style="edgeStyle=orthogonalEdgeStyle;rounded=0;orthogonalLoop=1;jettySize=auto;html=1;exitX=0.25;exitY=1;exitDx=0;exitDy=0;entryX=1;entryY=0.75;entryDx=0;entryDy=0;">
          <mxGeometry as="geometry" relative="1" />
        </mxCell>
        <mxCell id="WIyWlLk6GJQsqaUBKTNV-12" value="分析" parent="WIyWlLk6GJQsqaUBKTNV-1" style="rounded=1;whiteSpace=wrap;html=1;fontSize=12;glass=0;strokeWidth=1;shadow=0;" vertex="1">
          <mxGeometry as="geometry" height="40" width="120" y="310" x="320" />
        </mxCell>
        <mxCell id="JpG2KGv7KNXfuL8RFDFC-3" parent="WIyWlLk6GJQsqaUBKTNV-1" edge="1" target="WIyWlLk6GJQsqaUBKTNV-11" source="JpG2KGv7KNXfuL8RFDFC-0" style="edgeStyle=orthogonalEdgeStyle;rounded=0;orthogonalLoop=1;jettySize=auto;html=1;exitX=0.25;exitY=1;exitDx=0;exitDy=0;entryX=0.25;entryY=0;entryDx=0;entryDy=0;">
          <mxGeometry as="geometry" relative="1" />
        </mxCell>
        <mxCell id="JpG2KGv7KNXfuL8RFDFC-0" value="算法输出" parent="WIyWlLk6GJQsqaUBKTNV-1" style="rounded=1;whiteSpace=wrap;html=1;fontSize=12;glass=0;strokeWidth=1;shadow=0;" vertex="1">
          <mxGeometry as="geometry" height="40" width="120" y="330" x="160" />
        </mxCell>
        <mxCell id="JpG2KGv7KNXfuL8RFDFC-10" value="" parent="WIyWlLk6GJQsqaUBKTNV-1" edge="1" target="JpG2KGv7KNXfuL8RFDFC-9" source="JpG2KGv7KNXfuL8RFDFC-7" style="edgeStyle=orthogonalEdgeStyle;rounded=0;orthogonalLoop=1;jettySize=auto;html=1;">
          <mxGeometry as="geometry" relative="1" />
        </mxCell>
        <mxCell id="JpG2KGv7KNXfuL8RFDFC-7" value="量子电路" parent="WIyWlLk6GJQsqaUBKTNV-1" style="rounded=0;whiteSpace=wrap;html=1;" vertex="1">
          <mxGeometry as="geometry" height="60" width="120" y="240" x="530" />
        </mxCell>
        <mxCell id="JpG2KGv7KNXfuL8RFDFC-9" value="验证量子电路" parent="WIyWlLk6GJQsqaUBKTNV-1" style="rounded=0;whiteSpace=wrap;html=1;" vertex="1">
          <mxGeometry as="geometry" height="60" width="120" y="340" x="530" />
        </mxCell>
      </root>
    </mxGraphModel>
  </diagram>
</mxfile>
